<?xml version="1.0" encoding="UTF-8"?>
<svg viewBox="0 0 640 480" xmlns="http://www.w3.org/2000/svg">
 <path d="m26.675 359.68c0-1.8798 6.3014-1.9877 72.295-1.237 39.762 0.45245 108.95 1.1681 153.75 1.5904 44.798 0.42239 81.686 0.99603 81.973 1.2748 0.28729 0.27869-68.898 0.48975-153.75 0.46906-141.04-0.034637-154.27-0.21451-154.27-2.0973zm312.86 1.2968c0.86816-0.35434 2.2888-0.35434 3.1569 0 0.86822 0.35434 0.1579 0.64426-1.5784 0.64426-1.7364 0-2.4467-0.28992-1.5785-0.64426zm8.2081-0.0345c1.2154-0.32123 3.2044-0.32123 4.4198 0 1.2154 0.32126 0.22101 0.58411-2.2099 0.58411-2.4308 0-3.4253-0.26285-2.2099-0.58411zm165.74-2.9922c-1.859-0.77817-0.94244-1.0809 3.4727-1.1469 3.2991-0.049408 5.9972 0.34128 5.9958 0.8682-0.00354 1.353-6.4488 1.5427-9.4684 0.27872zm11.997 0.0406c0-0.70252 1.2786-1.2686 2.8412-1.2578 2.2976 0.015869 2.4788 0.25647 0.94708 1.2578-2.4482 1.6004-3.7883 1.6004-3.7883 0zm17.926-0.1141c1.0416-0.58963 3.4749-4.6851 5.4074-9.101 1.9324-4.4159 4.2465-8.8912 5.1423-9.945 2.985-3.511 10.551-17.883 9.4147-17.883-0.61584 0-1.4556 0.54974-1.8661 1.2215-0.41046 0.67188-1.7226 0.86768-2.9158 0.43518-1.1932-0.43253-1.7774-0.34619-1.2983 0.19183 0.47919 0.53815 0.22461 1.6784-0.56567 2.5343-1.1263 1.2196-2.1333 1.2216-4.6596 0.00943-2.6491-1.2712-5.9199-1.0244-18.376 1.3871-25.824 4.9992-31.07 5.7004-47.564 6.3559-16.167 0.64258-20.487 1.355-19.364 3.1928 1.1786 1.929-3.4758 2.5811-6.7794 0.94983-2.4759-1.2227-7.025-1.4076-17.845-0.72565-20.367 1.2836-66.168 1.1976-82.712-0.15518-7.6392-0.62479-14.107-0.91611-14.372-0.64737-0.26562 0.26865-1.4076-0.012024-2.5377-0.62384-1.1301-0.61172-6.5959-1.5234-12.146-2.0258-5.5504-0.50235-10.376-1.3279-10.723-1.8345-0.6062-0.88443-31.165-6.05-42.935-7.2576-3.1254-0.32062-8.808-1.6387-12.628-2.9289-11.526-3.8931-24.357-5.7649-27.576-4.0226-2.2361 1.2104-3.7932 1.0335-8.1817-0.93014-2.981-1.3338-8.0422-2.8229-11.247-3.3091-3.2048-0.48602-6.4586-1.6538-7.2307-2.5948-0.7721-0.94101-4.5122-2.1039-8.3114-2.5841-4.335-0.54785-6.9076-1.484-6.9076-2.5136 0-1.1064-2.9818-1.9199-9.1553-2.4977-5.0354-0.47144-9.3033-1.2906-9.4842-1.8205-0.18097-0.52969-3.0222-0.82309-6.314-0.65195-5.8378 0.30362-5.9074 0.26404-2.828-1.6096 3.7798-2.3 3.0542-2.1362-14.129 3.1897-12.421 3.85-17.366 5.5874-62.27 21.877-32.193 11.679-62.744 21.845-63.462 21.118-0.30652-0.30997 6.4598-2.8764 15.036-5.7032 20.028-6.6012 57.732-20.008 78.733-27.996 9.029-3.4344 21.993-8.1164 28.808-10.404 6.8156-2.2881 12.103-4.4527 11.749-4.8103-0.35348-0.35751-3.3727 0.26547-6.7094 1.3844-4.5163 1.5144-5.4944 1.5912-3.8274 0.30042 2.12-1.6416 2.1031-1.7701-0.31744-2.4103-1.7186-0.45462-2.2698-0.19199-1.6812 0.80127 0.65866 1.1115 0.4245 1.1164-0.94537 0.019653-1.0015-0.80179-5.2023-1.8491-9.3352-2.3274-4.1328-0.47839-8.4621-1.3829-9.6206-2.0099-1.1585-0.62717-2.4274-0.81558-2.8198-0.4187-0.3924 0.39685-1.3802 0.30487-2.195-0.20465-1.1242-0.70267-1.1106-1.1581 0.056152-1.8875 0.91852-0.57428-0.29855-1.1782-3.0222-1.4998-2.508-0.29623-4.56-0.079193-4.56 0.48233s-0.60181 1.0208-1.3373 1.0208c-0.7355 0-0.92642-0.67252-0.42422-1.4944 0.61035-0.99902 0.2298-1.2292-1.1478-0.69452-1.1335 0.43994-2.3354 0.35077-2.6708-0.19824-0.33545-0.54913-10.44-1.1659-22.455-1.3709-12.015-0.20502-26.107-0.79602-31.316-1.3134-8.3639-0.83069-7.1092-0.98764 10.734-1.3427 14.45-0.28754 18.047-0.62717 12.628-1.1925-6.7413-0.70343-7.159-0.90286-3.7884-1.8081 7.651-2.0546 7.7084-2.0892 5.6472-3.4078-1.6039-1.0259 9.503-1.9862 17.662-1.5269 1.0129 0.056946 2.8735-0.4549 4.1345-1.1375 1.8274-0.98929 2.9502-0.45102 5.5316 2.6521 4.0888 4.9152 6.9863 4.921 11.062 0.021881 5.7308-6.8892 8.873-24.675 5.5359-31.334-1.0343-2.064-2.2626-5.888-2.7296-8.4978-0.94492-5.2808-2.8924-7.3345-4.0534-4.2742-0.98801 2.6042 0.52768 8.6871 1.944 7.8016 0.60141-0.37592 1.4193 0.17538 1.8176 1.2251 0.49127 1.2951-0.075195 1.9087-1.7619 1.9087-1.3673 0-2.486 0.63625-2.486 1.414 0 0.77762 0.8819 1.0717 1.9598 0.65323 1.1238-0.4361 1.6307-0.22202 1.1883 0.50211-0.42432 0.69449-0.21707 1.2626 0.46057 1.2626 0.67767 0 1.5611-0.71851 1.9631-1.5967 0.40207-0.87816 0.39954 2.427-0.005646 7.3447-1.5861 19.251-9.3195 22.882-15.307 7.1882-1.7057-4.4704-2.2553-9.5685-2.2553-20.92 0-10.406-0.44263-15.009-1.4434-15.009-1.8192 1.07e-4 -2.9764 2.985-2.9764 7.6774 0 1.9999-0.79034 4.4357-1.7563 5.4128-1.2107 1.2246-1.3873 2.4436-0.56866 3.9232 0.78027 1.4103 0.73297 2.1467-0.13785 2.1467-0.72906 0-1.3256-0.5748-1.3256-1.2773 0-0.70254-1.518-1.2773-3.3733-1.2773s-4.5101-1.0059-5.8997-2.2353c-1.8285-1.6178-2.2396-1.706-1.4883-0.31935 0.57095 1.0538-0.94055 0.02887-3.359-2.2776-3.1408-2.9955-5.0616-3.9359-6.7228-3.2909-1.8433 0.71545-2.1524 0.44542-1.4896-1.3014 0.48959-1.2906 0.32767-1.8863-0.39069-1.4372-0.67477 0.42178-3.1932 0.39381-5.5965-0.062195-5.1551-0.9783-5.9372-3.8664-3.787-13.984 1.0538-4.9585 2.0422-6.6319 4.4198-7.4836 2.9948-1.0729 3.0633-1.4176 3.0997-15.604 0.032501-12.642 0.37335-14.962 2.6505-18.048 2.6878-3.6415 13.493-8.0909 23.994-9.8804 3.8392-0.65425 6.8581-2.4911 11.446-6.9644 3.4274-3.3416 8.8262-7.1611 11.997-8.4879 5.3662-2.2451 6.1696-3.2349 11.6-14.292 3.2089-6.5341 5.8343-12.551 5.8343-13.371 0-2.9181 10.565-17.831 16.284-22.987 13.531-12.196 35.479-18.357 70.217-19.709 5.5563-0.21626 14.08-0.64403 18.942-0.95073 4.8618-0.30669 25.22-0.93692 45.24-1.4006 27.21-0.62999 36.855-0.4615 38.2 0.66727 2.9773 2.4994 2.0586 3.7403-2.9365 3.9668l-4.7355 0.2147 4.7355 0.5011c2.6045 0.27553 4.7355 1.0412 4.7355 1.7013 0 0.66013 0.85236 1.2002 1.8942 1.2002s1.8942-0.60877 1.8942-1.3527c0-0.74403 0.56824-0.99748 1.2628-0.5633 0.69452 0.43417 1.2628 0.18075 1.2628-0.5633 0-0.74393-1.0757-1.3527-2.3904-1.3527-1.3148 0-2.7355-0.90921-3.157-2.0205-1.0533-2.7767-0.96307-3.3625 0.38794-2.5179 0.63495 0.39687 7.775 1.0083 15.867 1.3586 16.522 0.71543 31.634 3.4551 39.174 7.1021 9.4074 4.5504 13.202 6.9304 13.231 8.2987 0.015808 0.75005 5.5992 10.234 12.408 21.076 16.317 25.983 17.614 29.027 4.589 10.771-2.9377-4.1177-4.2345-5.2734-3.6503-3.2529 0.49847 1.7235 1.6837 3.9202 2.6339 4.8812 1.6502 1.6692 2.2389 3.5226 1.8458 5.8112-0.099426 0.57915 0.40149 0.689 1.1132 0.24397 0.71179-0.4449 1.2941-0.20029 1.2941 0.54375 0 0.74394-1.5627 1.371-3.4727 1.3933-1.91 0.022339-4.5757 0.88455-5.9239 1.916-2.2761 1.7414-2.058 1.8754 3.0518 1.8754 3.0266 0 5.2618 0.24396 4.9669 0.54224-0.2948 0.29825-9.0555 0.097839-19.468-0.44528-18.902-0.9861-18.911-0.9879-5.4921-1.1809 10.426-0.14996 13.597-0.60739 14.14-2.0393 0.51495-1.3574-0.5351-1.9829-3.969-2.3642-2.568-0.28522-1.3884-0.46048 2.6214-0.38959 5.635 0.099777 6.8538-0.19301 5.3669-1.2891-1.0581-0.78006-1.9238-1.7747-1.9238-2.2106 0-0.43582-1.989-3.9374-4.4198-7.7811-2.4309-3.8439-4.4198-7.5912-4.4198-8.3276 0-0.73625-0.52997-1.3386-1.1777-1.3386-0.6477 0-1.5384-1.1496-1.9793-2.5547-0.44086-1.4051-1.3019-2.5547-1.9136-2.5547-0.61157 0-0.52667 1.6984 0.18872 3.7742s1.0833 4.8061 0.81757 6.0674c-0.55109 2.616-2.8-3.6252-4.0662-11.284-0.63989-3.8707-1.3872-4.7618-4.5261-5.3968-2.1988-0.44489-3.7597-1.5693-3.7597-2.7086 0-1.5655-1.7972-1.9501-9.1553-1.959-5.0354-0.006134-12.228-0.38422-15.983-0.84023-4.7736-0.57977-6.5723-0.41181-5.9796 0.55845 0.49084 0.80319-0.35651 1.6217-2.0122 1.9436-2.3394 0.45486-2.1907 0.58771 0.81671 0.73 4.2101 0.19926 11.713 7.7269 12.904 12.947 2.6525 11.621 2.0087 10.794 9.0881 11.678 4.2291 0.5283 8.1374 2.0305 10.971 4.2164 5.0845 3.9227 5.3405 4.5428 1.8756 4.5428-1.389 0-2.5256-0.8147-2.5256-1.8104 0-2.4418-10.372-6.3445-13.874-5.2204-2.159 0.69321-2.5911 1.5508-1.9938 3.9578 0.69714 2.8096 0.38171 3.0729-3.6814 3.0729-2.4442 0-4.4438-0.63623-4.4438-1.414 0-0.77763-0.8739-1.0747-1.942-0.66011-2.443 0.94817-2.6554 0.34628-5.3512-15.17l-2.2193-12.773-6.3754 0.3878c-5.7463 0.34961-6.5168 0.074089-7.8081-2.7926-1.2044-2.6738-1.0907-3.2718 0.71356-3.7524 1.1804-0.31448-0.12683-0.59306-2.905-0.619-2.7781-0.026054-4.1988 0.28075-3.157 0.68198 2.3394 0.90077 3.7439 2.934 3.7684 5.4556 0.01355 1.389-1.6309 2.0109-5.9789 2.2612-3.2986 0.18993-6.1893 0.91533-6.4236 1.6121-0.23425 0.69666-3.5591 2.7661-7.3886 4.5986-7.745 3.7062-7.3998 2.1026-3.744 17.394l1.756 7.3447h-2.9912c-1.6452 0-2.924-0.43109-2.8417-0.95798 0.3974-2.5461-0.27667-4.2226-1.4124-3.5127-0.69452 0.43417-1.2806 0.037048-1.3023-0.88263-0.09668-4.0948-8.3265-17.796-15.114-25.163-1.0418-1.1306-1.8942-2.918-1.8942-3.9718 0-1.5315-2.2022-1.9804-10.974-2.2366-6.0358-0.1764-11.303 0.21728-11.704 0.8746-0.40167 0.65743 0.4772 3.7094 1.953 6.7821l2.6834 5.5867-5.8167 11.715c-3.1992 6.4434-5.8167 12.948-5.8167 14.455 0 2.4417 0.44656 2.6326 4.1041 1.7543 5.8814-1.4125 20.186-1.7705 22.397-0.56049 2.1269 1.164 0.95856 1.5055-12.714 3.7153-12.219 1.975-18.12 1.7171-20.407-0.89185-1.7669-2.0151-11.643-31.824-12.574-37.95-0.64926-4.2746 5.667-6.3212 22.35-7.2419 58.244-3.2142 92.212-4.069 113.65-2.8601 12.502 0.70497 22.93 1.137 23.174 0.96018 0.24377-0.17679-1.7623-0.92211-4.4579-1.6563-4.0107-1.0925-47.14-4.3353-51.548-3.876-10.148 1.0575-36.101 1.1486-35.475 0.12455 0.43329-0.70918 4.0463-1.7382 8.029-2.2864 4.3289-0.59601 6.0161-1.1924 4.1952-1.4827-2.4159-0.38525-2.6771-0.74738-1.2628-1.7506 3.611-2.5612-65.469-0.088272-95.452 3.417-29.194 3.413-36.232 4.8953-35.272 7.4281 0.72467 1.9103 16.972 0.92453 19.608-1.1896 0.97476-0.78172 5.2288-1.7687 9.4535-2.1934 4.2247-0.42458 8.625-1.1385 9.7786-1.5862 1.4638-0.56815 2.4273 0.088013 3.1896 2.1725 1.0667 2.9167 1.1117 2.9245 1.9245 0.33403 1.1719-3.7347 13.384-5.6318 34.884-5.4192 9.3763 0.092735 15.627 0.40363 13.891 0.69103-6.0377 0.99926-7.1477 2.0302-3.157 2.932 4.0567 0.91675 5.0852 0.76334-25.887 3.8627-7.2927 0.72975-25.193 1.9412-39.778 2.6921-14.585 0.75082-27.087 1.9495-27.782 2.6635-0.8529 0.87689 0.22781 1.1346 3.3294 0.79412 2.833-0.31116 4.3994 0.002686 4.089 0.81903-0.33313 0.876 4.5236 1.2294 14.372 1.0459 16.143-0.30094 20.513 0.31141 20.513 2.8745 0 0.9133 0.52585 1.8521 1.1685 2.0864 0.71286 0.25969 0.69687 2.9162-0.040985 6.8124-2.9096 15.364-3.3094 21.076-1.4754 21.076 0.96783 0 1.4085 0.57481 0.97925 1.2774-0.42926 0.70252 0.058105 1.2773 1.083 1.2773s2.1025-0.71851 2.3948-1.5967c0.41504-1.2473 0.98706-1.216 2.6147 0.14294 1.1459 0.95671 2.9431 1.4058 3.9938 0.99811 1.0506-0.40784 1.9103-0.24997 1.9103 0.35062 0 0.60074-2.474 1.4675-5.4978 1.9262-3.0238 0.45868-6.6937 1.961-8.1554 3.3383-1.4617 1.3775-3.2023 2.5045-3.868 2.5045-0.66574 0-1.4096 0.60455-1.6531 1.3434-0.28113 0.85301-11.725 1.7125-31.36 2.3549-17.004 0.55655-25.802 1.1589-19.552 1.3388 6.9788 0.20079 10.147 0.67023 8.2082 1.2164-2.8282 0.79694-2.9102 0.98546-0.78702 1.8107 1.3633 0.52997 3.2094 0.23376 4.3465-0.69742 1.545-1.2653 1.7695-1.2702 1.0282-0.022079-0.74625 1.2564 4.5167 1.5964 24.698 1.5953 22.778-0.001144 28.096-0.4297 47.552-3.832 12.048-2.1068 23.129-3.7633 24.624-3.681 2.916 0.16055-16.679 4.6548-25.063 5.7484-2.7781 0.36238-5.6194 1.2546-6.314 1.9825-0.86862 0.91049 0.51105 1.0598 4.4198 0.47824 4.1178-0.61273 5.161-0.47848 3.7884 0.48756-2.2625 1.5924-1.1995 1.6183 6.3091 0.1534 3.6966-0.72116 5.9575-0.64963 6.4796 0.20477 0.54193 0.88696 2.2642 0.82437 5.3123-0.19315 7.9247-2.6455 131.83 0.94051 155.86 4.5108 6.9605 1.0343 12.646-0.27094 10.525-2.4162-0.9726-0.9837-4.9633-1.4066-11.232-1.19-5.348 0.18471-27.624-0.52805-49.502-1.584-42.921-2.0716-102.06-2.936-114.25-1.6698-4.1486 0.43098-6.7057 0.3242-5.6826-0.23744 2.3892-1.3113 28.549-5.1474 35.103-5.1474 3.2814 0 5.2521-0.65909 5.7289-1.916 0.39978-1.0538 1.5971-1.916 2.6607-1.916s1.9338 0.8622 1.9338 1.916c0 1.2791 1.3643 1.9662 4.1041 2.0671l4.1041 0.1511-3.7884 1.0831c-2.3683 0.677 1.6554 0.86182 10.734 0.4933 7.9872-0.32433 18.642-0.59216 23.677-0.59535 5.2578-0.003448 9.1553-0.54965 9.1553-1.2832 0-0.71811-3.7316-1.3095-8.5239-1.3509-4.6882-0.040497-10.797-0.50276-13.575-1.0274l-5.0512-0.9535 4.4198-0.8551c2.4309-0.47018 11.05-0.83307 19.154-0.80638 11.806 0.038956 14.876 0.42395 15.451 1.9373 0.573 1.5104 1.2545 1.5974 3.403 0.43443 1.4776-0.79987 6.1742-1.2835 10.437-1.0745 4.2626 0.20885 11.576-0.089539 16.252-0.66319 9.7898-1.2009 18.947-0.053146 16.036 2.0099-1.2366 0.87639 1.78 1.0651 9.5584 0.59781 6.2508-0.37541 15.343-0.12558 20.205 0.55525 4.8618 0.6807 11.823 1.5962 15.469 2.0344 4.3621 0.52409 6.6296 1.3908 6.6296 2.5339 0 0.95558 0.55042 1.7373 1.2232 1.7373 0.67273 0 0.91809-0.80409 0.54529-1.7867-0.3728-0.98277 0.016968-2.2212 0.86615-2.7521 0.95227-0.59524 1.2194-0.43378 0.6969 0.42126-0.46594 0.76256-0.26959 1.7475 0.43628 2.1887 0.70587 0.4413 1.2834 0.19363 1.2834-0.55042 0-0.74391 0.85236-1.3527 1.8942-1.3527 1.0419 0 1.8942 0.57478 1.8942 1.2773 0 0.70254 1.597 1.2773 3.549 1.2773 4.388 0 17.806 5.2222 22.964 8.9374 2.1075 1.518 4.6904 4.4391 5.7395 6.4913 1.2331 2.412 2.9008 3.7383 4.7164 3.7509 2.0202 0.014038 2.3359 0.32277 1.1245 1.0997-1.348 0.86436-1.2719 1.24 0.38129 1.8818 1.2153 0.47172 1.7458 0.27821 1.2886-0.46992-1.5599-2.553 3.7991-2.8362 26.927-1.4227 15.08 0.9216 27.018 2.3448 33.07 3.9423l9.471 2.5-13.891-0.4046c-7.64-0.2225-10.339-0.17079-5.9983 0.1151 4.3408 0.28586 7.8925 0.75528 7.8925 1.0433 0 0.2879-1.4206 2.6411-3.157 5.2292-1.7363 2.5882-3.157 5.4877-3.157 6.4435 0 3.3091 3.3787 1.7169 6.4181-3.0247 7.8945-12.315 21.363-6.1647 21.363 9.7554 0 2.7912-0.59131 5.4446-1.3141 5.8964-0.72284 0.45194-0.96869 1.9228-0.54633 3.2688 0.52203 1.6638 0.16565 2.4471-1.1135 2.4471-2.1229 0-5.2008 8.0774-4.1417 10.869 0.38025 1.0023 0.2721 2.0846-0.24036 2.405-0.51245 0.32034-1.0649 2.3506-1.2277 4.5116-0.25635 3.4023 0.12 3.9291 2.8065 3.9291 1.7064 0 3.4537 0.5748 3.883 1.2773 0.42926 0.70256-0.38959 1.2774-1.8196 1.2774s-2.6001 0.52919-2.6001 1.1758c0 1.3454 5.7181 2.7386 9.471 2.3076 1.7793-0.20438 2.5256 0.46483 2.5256 2.2646 0 2.0225-0.97101 2.6363-4.6616 2.9467-4.4415 0.37349-4.5651 0.50609-2.616 2.8086 1.1251 1.3291 2.6003 2.0698 3.2783 1.646 0.67798-0.42383 0.86395-0.16722 0.41339 0.57019-0.45062 0.73753 0.076355 1.6885 1.171 2.1134 2.7664 1.0738 3.0203 0.99274 2.5824-0.82416-0.21167-0.87814-0.14648-1.1656 0.14484-0.63866 0.29132 0.5269 2.5507 0.95801 5.0208 0.95801 5.3959 0 7.8301-2.7268 7.8863-8.835 0.046387-5.0423 1.1592-4.7636 1.5814 0.39612 0.39423 4.818 2.4456 6.1445 10.143 6.5584 3.6447 0.19594 7.6212 0.41194 8.8366 0.47978 1.2154 0.06781 2.2099 0.90012 2.2099 1.8494 0 1.3008-2.3109 1.7101-9.3799 1.6608-10.453-0.072693-11.889 0.8631-17.337 11.302-1.4666 2.8102-3.048 5.3968-3.5142 5.748-1.0638 0.8017-16.874 25.138-18.949 29.169-0.84485 1.6409-1.3481 3.1368-1.1182 3.3243 0.22992 0.18753 1.5546 1.0438 2.9436 1.903 2.5256 1.5622 2.5256 1.5622 0 0.73242-1.389-0.45639-3.0064-0.93079-3.594-1.0544-1.6074-0.33798-3.4588 5.3054-2.033 6.1968 0.664 0.41516 1.2072-0.15863 1.2072-1.2749 0-1.751 0.47687-1.6922 3.4727 0.42764 1.91 1.3516 8.587 3.5243 14.838 4.8283 11.22 2.3405 11.285 2.376 5.1226 2.7703-4.6718 0.29889-6.9603 1.1828-9.095 3.5127-1.9938 2.1761-4.2961 3.1516-7.6482 3.2406-2.6377 0.070007-6.2164 0.53943-7.9528 1.0432-1.7363 0.50378-4.9858 0.5112-7.2211 0.016357-3.2696-0.72376-4.2035-0.45526-4.7773 1.3734-0.39227 1.2501-3.7959 7.0396-7.5637 12.866-3.7678 5.826-8.1522 13.576-9.7432 17.222-2.3289 5.338-3.484 6.6298-5.928 6.6298-2.2986 0-2.5757-0.26016-1.1416-1.0721zm-225.77-40.13c5.3428-5.0086 9.623-15.859 10.432-26.445 0.48608-6.3632 1.364-9.8644 2.7721-11.056 1.6427-1.3896 1.6765-1.619 0.16656-1.1307-1.0418 0.33698-2.812 0.13681-3.9337-0.44476-1.7048-0.88391-2.1604-0.025146-2.7761 5.2328-1.7233 14.719-6.4734 22.994-13.198 22.994-10.244 0-19.524-24.094-17.55-45.57 1.2145-13.217 6.8973-23.407 13.054-23.407 3.9134 0 3.7097-1.836-0.53583-4.8281-7.8374-5.5233-10.758-4.3514-15.328 6.152-7.6709 17.628-5.0374 54.438 5.0875 71.111 6.3364 10.434 15.317 13.478 21.81 7.3908zm248.25-14.682c0-0.70252 0.60181-1.2773 1.3373-1.2773 0.73554 0 1.0273 0.50738 0.64844 1.1275-0.37884 0.62006 1.1503 0.96118 3.3982 0.75812 2.2478-0.20325 3.945-0.99799 3.7713-1.7662-0.17364-0.76819 0.18585-1.3968 0.79883-1.3968 0.61292 0 3.5839-3.8799 6.602-8.622s5.7841-8.9094 6.1466-9.2607c0.36243-0.35126 1.3762-1.7883 2.2528-3.1934 3.9727-6.3678 10.131-15.915 14.42-22.353l4.6796-7.0253-3.4014-0.725c-5.7542-1.2264-6.9898-0.52051-8.8221 5.0395-2.2694 6.8868-4.8541 8.4708-17.852 10.94-5.8549 1.1124-10.767 2.1588-10.917 2.3253-0.14935 0.16629-1.1558 2.4608-2.2366 5.0986-1.1649 2.8431-3.7145 5.8403-6.2612 7.3602-2.714 1.6197-5.0239 4.4381-6.2724 7.653-1.8184 4.6823-1.808 5.1984 0.13013 6.4591 1.856 1.2072 1.8062 1.3117-0.41919 0.87897-1.6722-0.32523-3.7411 0.93997-6.1226 3.7441-1.9784 2.3294-3.0337 4.2353-2.345 4.2353 0.68866 0 1.6037-0.92697 2.0335-2.0598 0.5542-1.4608 1.2362-1.6835 2.345-0.76575 1.3953 1.1549 10.365 3.6072 14.507 3.9661 0.86816 0.075256 1.5785-0.43799 1.5785-1.1405zm-9.1793-3.3925c0.85498-0.35001 2.5598-0.37122 3.7884-0.047424 1.2287 0.32394 0.52918 0.6102-1.5544 0.63623-2.0836 0.02594-3.0889-0.23895-2.234-0.58881zm1.6025-16.27c0-0.27615 0.85242-0.83282 1.8942-1.2372 1.0419-0.40439 1.8942-0.17844 1.8942 0.50198 0 0.68045-0.85236 1.2372-1.8942 1.2372s-1.8942-0.22595-1.8942-0.50201zm16.101-0.3994c1.5627-0.3045 4.1199-0.3045 5.6826 0 1.5627 0.30438 0.28412 0.55347-2.8413 0.55347s-4.404-0.24908-2.8413-0.55347zm-267.35 15.449c-4.2395-4.8842-6.762-10.177-5.9598-12.506 0.26587-0.77176 0.90216 0.4845 1.414 2.7915 0.89374 4.0284 5.2687 8.1682 9.2582 8.7605 2.2327 0.33142 6.9813-3.904 7.3684-6.5723 0.15259-1.0518-0.52466-1.9122-1.505-1.9122-0.98035 0-1.7825 0.57477-1.7825 1.2773 0 0.70258-0.99445 1.2738-2.2099 1.2693-2.6212-0.009613-7.2462-7.5432-5.6328-9.1753 1.5878-1.606 5.0924 0.068115 5.9651 2.8495 0.487 1.5521 1.4534 2.0961 2.7971 1.5746 1.7908-0.69513 1.7422-0.91995-0.38037-1.761-2.2808-0.90372-2.2637-0.96976 0.27295-1.054 4.63-0.15366 5.6732-6.5529 1.8278-11.213-2.6127-3.1661-7.6525-4.5444-10.335-2.8265-1.2596 0.80664-1.3169 1.1427-0.19708 1.1566 0.86816 0.010742 1.5785 0.62833 1.5785 1.3722 0 0.74402-0.5683 0.99744-1.2628 0.56329-0.69452-0.43417-1.2628 0.10666-1.2628 1.202 0 1.1398 1.08 1.9914 2.5256 1.9914 2.7396 0 3.3788 1.8705 1.1216 3.2816-0.77222 0.4827-1.9324 0.085602-2.5782-0.88266-0.90192-1.352-1.0888-1.2014-0.80591 0.64929 0.22827 1.4932-0.47211 2.5433-1.8416 2.761-1.3294 0.2114-2.2496-0.49408-2.3096-1.7709-0.062927-1.3397-0.33557-1.5305-0.73926-0.5177-0.35175 0.88263-1.1593 1.2798-1.7945 0.88263-1.839-1.1496-1.3435-4.6299 1.0382-7.292 2.0736-2.3176 2.0747-2.5388 0.019653-4.0589-1.1954-0.88419-1.8172-1.968-1.3818-2.4084 0.43542-0.44043 0.070374-1.68-0.81134-2.7546-1.041-1.2688-1.3419-3.8547-0.85809-7.3756 0.6059-4.4095 0.50745-4.8357-0.52716-2.2831-2.5989 6.412-1.1911 29.086 2.3826 38.375 1.4994 3.8974 7.1633 10.219 9.1559 10.219 0.79962 0-0.34778-2.0757-2.5499-4.6126zm109.79-17.755c0.57727 0.36084 0.7229-0.60724 0.32367-2.1513-0.69257-2.6791-0.76971-2.6936-1.6876-0.32098-0.52905 1.3674-0.93591 3.3484-0.90418 4.4022 0.038635 1.2814 0.25 1.1704 0.63824-0.3349 0.31921-1.2382 1.0527-1.9559 1.6299-1.595zm-58.926-1.0679c0.44153 0.44659 3.2305-0.10217 6.1978-1.2193 2.9673-1.1172 7.0998-2.2637 9.1834-2.5476 2.0837-0.28412-0.019104-0.60266-4.6727-0.70792-6.6401-0.15006-8.7088 0.25635-9.6119 1.8887-0.78674 1.4222-1.4293 1.6242-2.0314 0.63867-1.5444-2.5276 0.53436-3.996 5.6569-3.996 2.7372 0 4.9767-0.57477 4.9767-1.2773 0-1.8608 3.8749-1.549 8.0369 0.64658 3.9435 2.0803 6.3561 2.486 5.391 0.90665-0.33655-0.55078 5.3894-1.0884 12.724-1.1947 7.3349-0.10642 13.897-0.76041 14.582-1.4535 0.68512-0.69308 1.8868-1.1118 2.6704-0.93054 0.78351 0.18112 0.99841 0.088409 0.47748-0.20627-0.52094-0.29468-0.96497-1.7812-0.98676-3.3033-0.021851-1.5222-1.4543-3.8094-3.1832-5.0826-1.729-1.2732-2.9898-1.848-2.8016-1.2773 0.18805 0.57074-0.22632 1.2842-0.92084 1.5856-1.9589 0.84982-2.358-3.9235-0.44-5.2626 1.061-0.74084-7.1025-0.89885-21.659-0.4191-15.16 0.4997-24.027 0.30975-25.256-0.54121-1.4273-0.98801-0.49359-1.3205 3.7884-1.3492 28.223-0.18904 39.256-0.98201 41.436-2.9784 1.3613-1.2462 4.8033-2.1895 8.5057-2.3311 3.4204-0.13081 5.5126-0.47607 4.6494-0.76718-0.86328-0.29111-1.2427-1.0643-0.84308-1.7183 0.3996-0.65401 1.3976-0.76526 2.2178-0.24716 0.82013 0.51794 2.6278 1.1037 4.0168 1.3017 1.9952 0.28421 2.1384 0.10719 0.68164-0.84303-1.5755-1.0279-1.4849-1.6328 0.62238-4.1549 2.3627-2.828 2.3209-2.822-0.99731 0.14458-1.905 1.7032-3.4636 2.5107-3.4636 1.7947 0-1.7893 3.8461-5.0512 7.1576-6.0704 2.0161-0.62053 3.9414 0.22635 7.3035 3.2122 2.5112 2.2302 4.8098 3.808 5.1082 3.5062 1.037-1.0489-3.0041-14.113-5.085-16.439-1.1515-1.287-2.8763-2.0363-3.833-1.665-1.4036 0.54492-1.2361 1.6729 0.86768 5.8442 2.4421 4.842 2.4598 5.1091 0.27954 4.222-7.1836-2.9232-16.856-4.6476-18.998-3.387-1.8743 1.103-1.3878 1.3698 2.7792 1.5241 2.7781 0.10283 4.004 0.4601 2.7241 0.79399-1.5626 0.40761-2.12 1.408-1.6968 3.0452 0.34674 1.341 0.081787 2.4382-0.58874 2.4382-0.67047 0-0.89191 0.53545-0.492 1.19 1.4796 2.4216-4.9039 5.1968-11.908 5.1772-3.839-0.010712-7.5483-0.44183-8.2429-0.95799-1.4512-1.0784-2.0474-5.4091-0.74475-5.4091 0.47784 0 1.6071-2.0652 2.5095-4.5893 1.1866-3.3194 2.9478-5.1814 6.3646-6.7286 2.5981-1.1767 5.6745-3.1008 6.8363-4.2761 1.1619-1.1752 4.8048-2.4673 8.0956-2.8716 3.2908-0.40414 8.667-1.3498 11.947-2.1011 3.2802-0.75148 7.8262-0.9948 10.102-0.54097 2.6431 0.52718 3.5374 0.40478 2.475-0.33862-1.6794-1.1751-0.79004-1.2833 33.233-4.0408 26.671-2.1618 33.878-2.5899 44.198-2.6261 12.591-0.044067 15.766 0.28703 14.986 1.563-0.33722 0.55194 0.98309 1.0114 2.934 1.0211 1.951 0.009567 4.9147 0.38756 6.586 0.83984 2.1306 0.57658 2.7687 0.38052 2.1354-0.65617-0.49683-0.81314-2.1484-1.5238-3.6702-1.5793-1.5217-0.055573-2.0987-0.37656-1.2822-0.71352 2.679-1.1054 12.001 2.2047 15.134 5.3738 1.688 1.7076 3.7537 3.1005 4.5903 3.0955 2.4789-0.014832-8.2023-10.045-12.978-12.187-10.512-4.7146-42.173-5.1282-85.262-1.1138-52.3 4.8725-64.87 9.083-71.884 24.079-3.8874 8.3121-4.0997 10.169-0.66681 5.8362l2.53-3.1933-0.7401 3.2684c-0.4071 1.7977-0.90051 4.3843-1.0966 5.748-0.30762 2.1404-1.8949 2.6344-11.605 3.6112-9.8976 0.99554-30.394 1.1418-54.183 0.38638-7.0914-0.22519-7.5706-0.058243-7.4794 2.6065 0.071472 2.0885-0.30988 2.5052-1.431 1.5641-3.1694-2.6607-4.3556 8.0337-1.352 12.189 1.6799 2.3238 1.7606 2.3148 2.5766-0.28586 0.46338-1.4768 0.47376-4.1708 0.023132-5.9869-1.5046-6.0637 1.783-3.4826 3.5224 2.7654 1.9327 6.9422 5.0524 8.3727 9.3752 4.299 1.9301-1.8188 3.0411-2.1228 4.0455-1.1067 0.95111 0.96194 2.2853 1.0035 4.2603 0.13245 1.728-0.76218 4.8913-0.84522 7.9268-0.20795 4.1431 0.86975 5.0831 1.6194 5.2289 4.1702 0.14734 2.5773-0.50146 3.1964-3.7884 3.6148-3.3918 0.43161-3.2143 0.5343 1.2256 0.70917 4.9664 0.19556 5.173 0.05188 4.759-3.3083-0.427-3.4654-0.41888-3.4698 0.6026-0.31934 0.56952 1.7564 1.6954 3.0496 2.5021 2.874 0.8067-0.17563 1.4667 0.25549 1.4667 0.95801 0 0.70969-3.3675 1.2773-7.5768 1.2773-4.1672 0-7.5768 0.5292-7.5768 1.1758 0 1.0764 6.1374 3.149 9.6975 3.2748 0.81915 0.029022 1.9034 0.47147 2.4094 0.98331 0.50604 0.51184 1.5929 0.36581 2.4152-0.32458 0.82233-0.69037 1.8564-0.8898 2.2979-0.44312zm22.669-9.27c0.41962-0.42447 1.5088-0.46982 2.4204-0.1008 1.0074 0.40774 0.70819 0.71048-0.76294 0.77179-1.3312 0.05542-2.077-0.24655-1.6574-0.67099zm4.7092-0.5056c0-0.70254 1.17-1.2773 2.6002-1.2773 1.43 0 2.2489 0.5748 1.8196 1.2773-0.42926 0.70254-1.5993 1.2773-2.6001 1.2773s-1.8197-0.5748-1.8197-1.2773zm-53.251-12.655c-4.632-0.41641-8.8928-1.2349-9.4684-1.8189-0.57568-0.584 0.59961-0.64392 2.6118-0.13298 2.0843 0.52908 3.3559 0.43634 2.9553-0.21561-0.75629-1.2307 14.001-0.96146 19.268 0.35152l3.157 0.787-3.157 0.9667c-3.5791 1.0958-3.8563 1.097-15.367 0.062347zm-13.701-2.0637c-1.3345-1.6264-1.2564-1.8134 0.47681-1.1407 1.14 0.44247 2.0728 1.3178 2.0728 1.9452 0 1.6427-0.73102 1.412-2.5496-0.80458zm12.825 21.24c-1.4533-0.93134-1.4533-1.2109 0-1.7956 1.0286-0.4137 0.63232-0.73303-0.98486-0.79321-1.4884-0.055542-3.0333-0.9631-3.433-2.0169-0.39978-1.0538-1.8812-1.916-3.2921-1.916s-3.7017-1.1496-5.0908-2.5547c-1.6415-1.6604-2.5256-1.9684-2.5256-0.87961 0 1.5819 2.4825 4.5656 6.8848 8.2746 1.5957 1.3445 1.9584 1.3445 1.9741 0 0.013245-1.1262 0.31274-1.2027 0.94714-0.24179 0.94794 1.4356 3.7166 2.7994 5.9789 2.945 0.69452 0.044708 0.48816-0.41516-0.45856-1.0218zm7.6407-1.0076c-0.91156-0.36905-2.0007-0.3237-2.4204 0.10077-0.41962 0.42447 0.32623 0.72641 1.6575 0.67099 1.4711-0.06131 1.7703-0.36404 0.76288-0.77176zm99.398-4.9968c0.069214 0.63574 1.2034 0.1695 2.5205-1.036 1.8607-1.7035 2.5424-1.8187 3.0572-0.51733 0.58466 1.4776 0.91992-0.11215 1.3755-6.5234 0.070801-0.99622 0.86841-2.0607 1.7726-2.3657 1.0358-0.34918 0.12573-1.6872-2.4606-3.6173-4.7803-3.5675-5.4012-3.7338-4.4354-1.1879 0.39124 1.0313 0.16791 2.2148-0.49628 2.63-0.66425 0.41528-1.2076-0.60608-1.2076-2.2696 0-4.4522-2.6586-7.4398-5.8516-6.5761-1.7678 0.4781-2.5002 1.4804-2.1296 2.9141 0.52936 2.0473-1.8284 3.9221-7.1724 5.7028-1.0418 0.3472-0.31683 0.6766 1.611 0.73218 3.4835 0.10013 3.493 0.12451 1.5461 3.9328-1.9363 3.7874-3.6404 5.3257-2.4763 2.2353 0.40442-1.0737-0.8009-1.626-3.6803-1.6862-3.6581-0.07666-4.2573 0.32419-4.1138 2.7514 0.092407 1.5626 0.67706 2.523 1.2993 2.1344 0.6311-0.3942 0.7663 0.76434 0.30585 2.6201-0.79248 3.1938-0.64294 3.3031 3.7405 2.7354 5.8592-0.75885 6.8884-1.4572 5.9178-4.0155-0.52862-1.3935-0.30102-1.7785 0.68652-1.161 0.91846 0.57416 1.4847 0.049286 1.4968-1.3872 0.016418-1.9592 0.20557-2.0192 1.2435-0.39471 1.7885 2.7994 1.5299 0.95865-0.58435-4.1597-1.6975-4.1095-1.6565-4.6463 0.50598-6.626 3.127-2.8624 3.7154-1.5766 4.7398 10.356 0.61749 7.1927 1.1133 9.1114 1.7615 6.8168 0.49616-1.7563 0.95874-2.6732 1.028-2.0374zm-19.439-4.3347c-0.44244-0.72412 0.064453-0.9382 1.1883-0.50211 2.1877 0.84915 2.588 1.7648 0.77154 1.7648-0.65356 0-1.5355-0.56815-1.9598-1.2627zm20.916-3.5273c0.078613-3.1126 0.21234-3.2217 1.174-0.95801 1.4822 3.4889 1.4822 4.4706 0 4.4706-0.69458 0-1.2228-1.5807-1.174-3.5126zm-101.43 9.0189c-1.2154-0.32126-3.2044-0.32126-4.4198 0s-0.22101 0.58411 2.2099 0.58411 3.4254-0.26285 2.2099-0.58411zm-184.05-4.4833c0 1.0736 1.4668 0.91754 5.0666-0.53943 2.7866-1.1279 6.1969-1.7516 7.5785-1.3861 1.3816 0.36542 2.2269 0.19797 1.8785-0.37222-0.34839-0.57022 1.7818-0.80487 4.7337-0.52127 3.0894 0.29669 0.88312-0.5531-5.1988-2.0024-7.5831-1.807-11.237-2.1545-12.944-1.2307-1.4555 0.78799-2.3777 0.81561-2.3777 0.071289 0-0.6687 0.71033-1.5057 1.5785-1.8601 0.94299-0.38486 0.68878-0.68491-0.63138-0.74506-1.4747-0.067322-2.2156 0.85519-2.2271 2.7731-0.009491 1.5807-0.33578 4.311-0.72513 6.0674-0.68323 3.0821-0.63861 3.107 1.28 0.7139 1.0934-1.3637 1.9879-1.7995 1.9879-0.96835zm303.11-1.0518c3.948-2.8436 4.4965-6.8521 1.438-10.509-2.1691-2.5935-4.1433-2.9598-3.442-0.63867 1.3146 4.3502 1.7811 9.8994 0.83221 9.8994-0.58777 0-1.4486-2.8971-1.9129-6.4381-1.0361-7.9004-3.0981-12.722-5.4409-12.722-0.97131 0-1.4091-0.58412-0.97284-1.2982 0.43622-0.71402 1.4088-0.91342 2.161-0.4431 1.7179 1.074 0.29987-8.8601-1.9149-13.415-1.6768-3.4486-5.379-6.2757-6.6003-5.0402-0.42908 0.43393 0.40295 3.1346 1.8488 6.0014 1.4459 2.8668 2.875 8.2394 3.1758 11.939 0.30084 3.6997 1.481 8.9861 2.6226 11.747 1.1416 2.7613 1.7687 6.5734 1.3934 8.4713-1.1248 5.6884 1.1674 6.5114 6.8119 2.4458zm12.588 0.1778c0-0.62054 1.2116-1.4488 2.6924-1.8406 1.9541-0.51694 2.5102-1.4165 2.0283-3.2811-0.3653-1.4128-0.12244-2.7515 0.53967-2.9748 0.66211-0.22318-0.32117-1.8314-2.1851-3.5739-3.2525-3.0404-3.3551-3.0567-2.5493-0.4016 0.46179 1.5217 0.24823 3.1362-0.47455 3.5882-0.79926 0.49957-1.3142-0.68594-1.3142-3.0258 0-4.8709-2.427-10.354-4.5829-10.354-0.94666 0-1.3427-0.8148-0.92773-1.9087 0.39825-1.0497 1.2949-1.5517 1.9926-1.1156 1.7076 1.0676-0.022827-9.3081-2.3049-13.819-2.1389-4.2284-4.1056-5.5578-5.7546-3.8897-0.8316 0.84111-0.38507 2.9946 1.3234 6.3818 1.4181 2.8118 2.6664 7.3348 2.7739 10.051 0.10754 2.7164 1.0152 8.0162 2.017 11.777 1.0018 3.761 1.6639 8.072 1.4714 9.58-0.19244 1.508 0.092224 3.4603 0.63269 4.3385 1.1199 1.8197 4.622 2.1745 4.622 0.46829zm0-5.2583c0-0.70254 0.25055-1.2773 0.55688-1.2773 0.30621 0 0.90802 0.5748 1.3373 1.2773 0.42926 0.70254 0.17865 1.2773-0.55688 1.2773-0.73554 0-1.3373-0.5748-1.3373-1.2773zm15.133 2.5437c1.7934 0.97092 2.5458 0.97552 2.5458 0.015839 0-0.7493-0.85236-1.6932-1.8942-2.0976-1.0418-0.40439-1.8942-1.5077-1.8942-2.4517 0-5.6536-3.0038-14.784-5.2668-16.01-1.3895-0.75211-2.7275-1.164-2.9733-0.91547-0.57611 0.58282 3.5574 16.528 4.7922 18.486 0.51593 0.81812 0.3338 1.6913-0.40485 1.9404-0.77106 0.25995-0.95264 1.4816-0.42639 2.8686 0.86145 2.271 0.97833 2.247 1.9462-0.39954 0.86267-2.359 1.4425-2.5921 3.5755-1.4374zm-368.17 1.1515c-0.58145-0.95172 0.013672-1.1324 1.8197-0.55255 1.6522 0.53033 2.6837 0.30847 2.6837-0.57724 0-0.79129-0.56827-1.0836-1.2628-0.64938-0.69455 0.43414-1.2628-0.088684-1.2628-1.1619 0-1.2097 0.71988-1.6719 1.8942-1.2161 1.3347 0.51813 1.8942-0.10599 1.8942-2.1126 0-2.3248-0.3317-2.5692-1.8062-1.3315-1.4452 1.2134-2.0877 0.98404-3.2154-1.1473-0.77512-1.465-1.0078-3.3701-0.51703-4.2339 0.49075-0.8636 0.42593-1.1428-0.14404-0.62039-0.56995 0.52242-1.8131-0.17195-2.7626-1.5432-1.9553-2.8237-5.4493-2.1496-5.4385 1.0494 0.013 3.8804 2.597 11.576 4.5505 13.552 2.227 2.2527 4.8558 2.6543 3.567 0.54489zm-2.9909-2.956c-1.2217-1.489-1.0249-1.6926 1.094-1.1321 1.421 0.37579 2.2723 1.1928 1.8918 1.8155-0.92535 1.5144-1.2419 1.442-2.9858-0.68335zm384.86 0.9639c0.93243-1.0096 1.0384-1.7031 0.26025-1.7031-0.72192 0-1.2677-1.5807-1.2129-3.5127 0.054871-1.932 0.38745-2.7906 0.73926-1.9081 0.35175 0.88261 1.1593 1.2798 1.7945 0.88261 0.63519-0.3971 1.1549 0.20813 1.1549 1.3448s0.5683 1.7115 1.2628 1.2773c1.9635-1.2275 1.4856-7.0191-0.64746-7.8471-1.0507-0.40772-2.7554-0.031921-3.7884 0.83527-1.5877 1.3328-1.8811 1.0094-1.8975-2.0925-0.024536-4.6516-1.6164-7.2066-4.796-7.6974-2.4061-0.37146-2.43-0.16492-0.65283 5.6534 1.0145 3.3215 1.8633 8.0508 1.886 10.51 0.022827 2.4589 0.24487 4.806 0.49341 5.2158 0.80194 1.3222 3.7868 0.79297 5.4038-0.95801zm-196.16-0.4111c0.44238-0.72409-0.064453-0.93817-1.1883-0.50211-2.1877 0.84921-2.588 1.7648-0.77148 1.7648 0.65356 0 1.5355-0.56818 1.9598-1.2627zm205.19-0.1777c0.015259 1.3842 0.40362 1.4305 1.8451 0.22049 1.3571-1.1392 1.5192-2.3484 0.63141-4.7103-1.8982-5.0502-1.1942-7.9579 0.80646-3.3305 2.2458 5.1944 3.0504 5.247 3.0504 0.19977 0-2.8607-0.68854-4.1337-2.4942-4.6113-1.3761-0.36404-3.188-2.6008-4.042-4.9898-1.6561-4.6325-6.1077-6.1681-6.0724-2.0947 0.014099 1.6355 0.29407 1.7973 1.0433 0.60315 0.65509-1.0442 1.0874-0.12402 1.2001 2.5547 0.42743 10.165 1.8174 17.912 2.9028 16.178 0.93152-1.4878 1.1129-1.491 1.1292-0.019714zm-92.971-1.753c1.0474-2.761-0.49091-6.0081-2.4804-5.2358-0.93384 0.3625-2.2385-0.31819-2.8994-1.5126-2.1474-3.8814-2.8555-0.68324-0.89789 4.0557 1.964 4.7548 5.0012 6.0575 6.2776 2.6928zm-3.9031-1.4104c0.41962-0.42447 1.5088-0.46982 2.4204-0.10077 1.0073 0.40772 0.70813 0.71045-0.763 0.77176-1.3312 0.05542-2.077-0.24652-1.6574-0.67099zm110.47 1.8534c0.8811-0.89124 1.0388-2.2785 0.39923-3.5127-0.58142-1.1217-1.4732-4.6262-1.9818-7.7877-1.2242-7.6101-2.708-10.219-5.8121-10.219-2.7768 0-2.667 1.21 0.91217 10.055 0.95868 2.3691 1.743 6.249 1.743 8.622 0 4.4528 1.9757 5.6373 4.7395 2.8417zm11.949-2.0542c-0.69696-0.23502-0.97717-1.5493-0.62262-2.9206 0.3551-1.3736 0.011353-2.4935-0.76544-2.4935-0.7804 0-1.428-2.1389-1.4503-4.79-0.043091-5.1433-2.309-9.2355-5.1502-9.3013-1.227-0.028366-1.0442-0.58518 0.6076-1.8505 2.9299-2.2443 2.0392-8.937-1.8561-13.946-4.7399-6.0952-6.8247-2.5465-2.9254 4.9797 1.0919 2.1076 2.1688 6.218 2.393 9.1342 0.22424 2.9162 0.78626 6.5087 1.249 7.9834 0.67969 2.1661 0.31012 2.6811-1.924 2.6811-2.1702 0-2.4626 0.3689-1.3588 1.7142 0.7735 0.94281 1.0325 2.0924 0.57556 2.5547-0.45703 0.46228-0.16797 0.84048 0.64233 0.84048s1.4733 1.1836 1.4733 2.63c0 1.5595 0.55566 2.2828 1.3651 1.7767 0.76636-0.47916 1.0265-2.333 0.59302-4.2267-0.57861-2.5281-0.45093-2.8933 0.50977-1.4573 0.70502 1.0538 1.2905 3.5307 1.3012 5.504 0.011108 2.0629 0.55609 3.2525 1.2821 2.7986 0.69458-0.43414 1.2628-0.11035 1.2628 0.71964 0 1.079 0.57947 1.0228 2.0326-0.1972 1.118-0.93848 1.4625-1.8986 0.7655-2.1337zm8.6756 1.1066c1.5551 2.4842 1.5319-4.1862-0.028137-8.0572-0.65033-1.6138-1.5374-5.1377-1.9712-7.831-0.5722-3.5521-1.2878-4.703-2.606-4.1915-2.4923 0.96747-2.2976-1.7709 0.26044-3.6629 1.9-1.4053 1.798-2.1545-1.1929-8.7628-1.7988-3.9744-3.8367-7.2261-4.5288-7.2261-2.511 0-2.7263 2.5682-0.55884 6.6685 1.2178 2.3039 2.5224 7.3503 2.8989 11.214 0.44074 4.522 1.2288 6.917 2.2117 6.7213 0.83978-0.16719 1.2266 0.48782 0.85938 1.4555-0.41528 1.0948-1.7101 1.4878-3.4272 1.0405-2.2493-0.58603-2.4992-0.38269-1.3508 1.0991 0.77496 1 2.0087 3.5426 2.7416 5.6502l1.3327 3.832 0.0997-4.3643c0.12793-5.5992 1.0633-4.6579 1.8404 1.8519 0.89044 7.4595 1.0189 7.8547 1.6907 5.201 0.49237-1.9451 0.83203-2.0706 1.7284-0.63864zm-54.164-4.5701c-1.8029-4.0023-4.0197-4.2497-3.1719-0.35397 1.3071 6.0062 1.6668 6.5751 3.1862 5.0382 1.0778-1.0901 1.0742-2.2678-0.014282-4.6842zm78.192 4.3583c1.8304-0.99081 2.2757-2.1067 1.6566-4.1513-1.4012-4.6277-3.081-6.0698-5.5279-4.7452-1.464 0.79259-2.7487 0.67688-3.8416-0.34615-1.3226-1.2378-1.4459-1.0398-0.63324 1.0178 0.55493 1.4051 1.1606 3.9917 1.3461 5.748 0.18542 1.7564 0.38336 3.3371 0.43976 3.5127 0.26343 0.82007 4.3134 0.1806 6.5603-1.0358zm-5.1949-5.0316c0-0.70253 0.25055-1.2773 0.55682-1.2773 0.30634 0 0.90808 0.57481 1.3373 1.2773 0.42926 0.70254 0.17865 1.2773-0.55688 1.2773-0.73547 0-1.3373-0.5748-1.3373-1.2773zm-10.102 1.3904c0-1.2987-3.2289-1.1048-4.5937 0.27579-0.48315 0.48871 0.35278 0.88849 1.8576 0.88849s2.7361-0.52393 2.7361-1.1643zm3.7884-0.113c0-0.70253-0.56824-1.2773-1.2628-1.2773-0.69452 0-1.2628 0.57481-1.2628 1.2773 0 0.70254 0.56824 1.2773 1.2628 1.2773 0.69458 0 1.2628-0.57477 1.2628-1.2773zm22.099-0.9129c8.9717 0.040619 11.471-0.3326 13.809-2.0623 1.8624-1.3775 2.0307-2.1982 0.89197-4.3503l-1.4034-2.6525-9.0781 3.1066c-4.9929 1.7087-9.5509 2.6285-10.129 2.0439-0.57794-0.58453 2.9304-2.1074 7.7961-3.3838 4.8658-1.2766 8.8469-2.7197 8.8469-3.2071 0-0.97588-12.987 0.33198-17.416 1.7539-3.2119 1.0312-3.291 1.4403-1.3603 7.0425 0.78583 2.28 1.7802 3.5924 2.2099 2.916 0.42963-0.67622 3.0541-1.2194 5.8323-1.2068zm-149.68-1.5918c1.0217-0.65361 1.589-1.46 1.2609-1.7921-0.32825-0.33197-1.699 0.21155-3.0461 1.208-2.6942 1.9926-1.1873 2.4856 1.7852 0.58412zm-21.431-1.3273c0-0.70254-0.53473-1.2773-1.1882-1.2773-0.65356 0-1.5395 0.57478-1.9688 1.2773-0.42926 0.70254 0.10547 1.2773 1.1883 1.2773s1.9687-0.57478 1.9687-1.2773zm149.68-2.3702c-0.085938-1.18-0.59222-2.8589-1.1251-3.731-0.53284-0.87215-0.61078-2.8739-0.17322-4.4482 0.55341-1.9911 0.43488-2.3364-0.38928-1.134-0.89148 1.3004-1.807 1.3918-3.6967 0.36876-1.8642-1.0092-3.111-0.9165-4.8362 0.35957-2.1517 1.5914-2.0809 1.6922 0.95172 1.3555 3.1524-0.35011 3.2312-0.19902 2.086 3.9964-1.5011 5.4989-0.81671 6.5891 3.7142 5.9165 2.4292-0.36072 3.5732-1.2458 3.4685-2.6836zm-3.3547-3.6971c-1.5708-2.026-1.5261-2.0711 0.47675-0.48232 1.2154 0.96425 2.2099 1.9702 2.2099 2.2353 0 1.0514-1.037 0.37479-2.6866-1.753zm-247.98-0.3257l3.7884-4.4643-4.1041 3.7516c-2.2573 2.0634-4.1041 4.3147-4.1041 5.003 0 0.6881 0.14209 1.0088 0.31574 0.71262 0.17358-0.2962 2.0204-2.5475 4.1041-5.0029zm268.37-2.3255c-0.74872-0.25252-0.49835-1.9019 0.62103-4.0914 2.3829-4.6611 2.3772-5.8068-0.018738-3.7953-1.0419 0.8746-1.8942 2.6816-1.8942 4.0158 0 1.3478-1.4028 3.0721-3.157 3.8807-4.7001 2.1661-3.8161 3.427 1.2731 1.8158 2.4366-0.77138 3.8657-1.5928 3.1758-1.8255zm-460.93-0.2529c1.0582-1.9999 0.92535-3.0321-0.58694-4.5619-1.7642-1.7846-1.9546-1.5329-1.9546 2.5848 0 5.2016 0.59186 5.6621 2.5415 1.9771zm368.41-8.7409c-1.3416-6.863-5.7973-13.487-8.0582-11.98-1.0066 0.67114-0.48285 3.0272 1.7736 7.9777 1.7612 3.864 3.0895 7.7439 2.9517 8.622-0.13776 0.87816 0.82922 1.5967 2.1489 1.5967 2.1949 0 2.2958-0.52933 1.1841-6.2164zm13.595 4.485c1.3765 0.5343 1.5967-0.36978 1.0291-4.223-0.91333-6.1997-4.332-12.434-7.1161-12.976-2.8-0.54542-2.7022 0.84317 0.58398 8.2863 1.499 3.3953 2.65 7.3229 2.5578 8.7279-0.092224 1.4051 0.13867 1.8685 0.51306 1.0298 0.37445-0.83867 1.4689-1.2191 2.4321-0.8452zm-238.06-0.6669c0-1.8253-2.8779-3.5754-7.2611-4.4154-2.3557-0.4514-4.1041-0.25583-4.1041 0.45895 0 0.68503 1.17 1.2454 2.6001 1.2454 1.43 0 2.2789 0.52576 1.8863 1.1683-0.39261 0.6425 6.1e-5 1.4594 0.87256 1.8151 2.6334 1.074 6.0062 0.92108 6.0062-0.27232zm250.47-5.7318c-1.0016-6.5688-5.2072-13.106-7.1603-11.131-0.96857 0.97958-0.74121 3.1135 0.79291 7.443 1.1829 3.3383 2.1479 7.0218 2.1445 8.1854-0.004395 1.4857 0.74347 1.9174 2.511 1.4499 2.1799-0.57672 2.4094-1.3739 1.7119-5.9478zm11.109 1.0812c-0.52283-4.4533-3.0258-9.7259-5.6713-11.947-3.2301-2.7117-3.4092 0.47836-0.48505 8.6395 1.9304 5.3878 3.4102 7.7401 4.7092 7.4861 1.3062-0.25558 1.7554-1.5527 1.4472-4.1788zm42.751 1.8029c0-0.6273-0.6673-1.1407-1.4829-1.1407-0.81561 0-0.10706-1.4814 1.5745-3.2921 2.2105-2.3799 4.0122-3.1503 6.5035-2.7804 2.7448 0.40747 3.1638 0.16772 2.0592-1.1786-0.79626-0.97052-3.9559-1.6903-7.42-1.6903h-6.0332l0.1895 4.9781c0.10425 2.7378 0.71234 4.6554 1.3513 4.2611 0.63892-0.3942 0.80994 0.21039 0.38 1.3436-0.54889 1.4468-0.23669 1.849 1.0482 1.3503 1.0064-0.39062 1.8299-1.2236 1.8299-1.851zm-317.92 0.5653c-0.8725-0.35574-1.2055-1.2703-0.73993-2.0321 0.54639-0.89427 0.064941-1.082-1.3582-0.52957-1.2126 0.47057-3.7209 0.89606-5.5741 0.94548-3.0177 0.080338-3.1058 0.20436-0.84378 1.1875 1.3891 0.60379 4.2304 1.0928 6.314 1.0868 2.0836-0.006104 3.0745-0.3022 2.202-0.65808zm-12.304-2.4053l5.0512-1.9384-7.5768 0.7364c-4.648 0.45178-6.9306 0.29276-5.9051-0.41145 1.0887-0.74762-0.45282-1.1017-4.4198-1.0154-3.3503 0.072937-10.354-0.27693-15.562-0.77751-11.564-1.1111-5.5082 0.69016 11.365 3.381 5.9036 0.94139 11.018 1.7683 11.365 1.8376 0.34726 0.069229 2.9044-0.74635 5.6826-1.8123zm321.75-0.578c-0.36328-1.4051-0.8783-2.5547-1.1446-2.5547s-0.48407 1.1496-0.48407 2.5547 0.51502 2.5547 1.1445 2.5547c0.62952 0 0.84741-1.1496 0.48413-2.5547zm0.9103-4.4545c-0.85736-1.0449-1.2289-2.7693-0.82568-3.832 0.40314-1.0628 0.22998-1.9322-0.38489-1.9322-2.0772 0-2.2742 3.1788-0.33649 5.4287 2.3347 2.7109 3.7473 3.0173 1.5471 0.33556zm-374.83-0.2501c-0.91159-0.36902-2.0008-0.32368-2.4204 0.10078-0.41962 0.42445 0.32623 0.72641 1.6574 0.67098 1.4711-0.061295 1.7703-0.36404 0.76294-0.77176zm-15.39-5.5895c0-0.66113-0.56827-1.202-1.2628-1.202-0.69452 0-1.2628 0.89618-1.2628 1.9914 0 1.0953 0.56827 1.6361 1.2628 1.202 0.69455-0.43416 1.2628-1.3304 1.2628-1.9914zm-87.812-10.038c-1.2974-3.5227-3.1533 0.63126-2.271 5.0834l0.8701 4.3908 1.0338-3.832c0.5686-2.1076 0.7338-4.6466 0.3671-5.6423zm296.35 6.1786l2.9811-2.6571-3.1223 2.0184c-4.682 3.0265-5.944 2.4294-1.808-0.8557 1.9902-1.5807 3.9363-2.7705 4.3246-2.6442 0.38837 0.12646 0.73981-4.0212 0.78094-9.2169 0.041138-5.1957-0.40772-9.1451-0.99738-8.7764-0.58966 0.36862-1.0721 0.076248-1.0721-0.64966 0-1.9856-6.9694-5.2313-10.987-5.1166-1.9445 0.05545-2.88 0.37222-2.0789 0.70395 0.91302 0.3781 0.29852 1.7745-1.6465 3.7418-1.7066 1.7263-2.7548 3.7088-2.3291 4.4054 0.42566 0.69667 0.03009 1.2754-0.87909 1.2862-1.2012 0.01416-1.1352 0.35802 0.24115 1.2578 1.6188 1.0581 1.5729 1.2411-0.31567 1.2578-1.2369 0.010986-2.249-0.96464-2.2986-2.2158-0.075134-1.8915-0.24036-1.8424-1.0744 0.31934-0.54205 1.4051-1.3545 2.411-1.8054 2.2353-0.45087-0.17564-1.246-0.28293-1.7669-0.23836-0.52094 0.044586 0.32202 0.59728 1.8732 1.2283 1.7218 0.70047 2.549 1.8623 2.1238 2.9832-0.38306 1.0096-0.0802 2.221 0.67304 2.692 0.75324 0.47086 1.0936 1.3076 0.75641 1.8594-1.5494 2.5359 6.8484 7.6463 14.638 8.908 0.44397 0.071915 2.1487-1.0649 3.7884-2.5262zm-14.067-20.26c0-0.66104 0.56177-1.5531 1.2483-1.9823 0.71588-0.4476 0.92755 0.065125 0.49634 1.202-0.83954 2.2129-1.7446 2.6178-1.7446 0.78033zm-7.5768 16.591c0-0.58591-0.78809-1.3712-1.7513-1.7451-1.2261-0.47595-1.5617 0.053391-1.1193 1.765 0.59515 2.302 2.8705 2.2862 2.8705-0.019943zm-0.8419-6.2351c-0.58112-2.2476-4.2094-3.4033-4.2094-1.3408 0 0.76398 3.3277 3.39 4.6172 3.6437 0.10864 0.021317-0.074951-1.015-0.4079-2.3029zm28.124-3.699c-0.41962-0.42448-0.71808 0.33003-0.66327 1.6765 0.060608 1.4881 0.35986 1.7907 0.76294 0.77176 0.36481-0.92209 0.31995-2.0238-0.09967-2.4482zm210.25-1.7896c3.2342-4.2688 4.0421-10.774 2.0745-16.704-0.89935-2.7106-2.2852-3.698-6.4095-4.5664-5.7067-1.2015-9.7538-0.62436-7.1289 1.0166 1.1248 0.70319 1.0063 1.704-0.47192 3.9859-2.0604 3.1808-1.5023 5.3261 1.7074 6.562 1.0893 0.41946 0.3869 0.77226-1.653 0.83025-2.0448 0.058121-3.2193-0.43596-2.773-1.1665 0.42578-0.69693 0.2691-2.1803-0.34833-3.2962-0.797-1.4407-1.1869-0.30783-1.3445 3.9066-0.1878 5.0226 0.3479 6.512 3.4827 9.6828 4.871 4.9272 9.0023 4.8466 12.864-0.25098zm-6.44-17.215c0-1.0572 2.452-1.655 3.0142-0.73496 0.36468 0.59688-0.16431 1.0853-1.1755 1.0853s-1.8386-0.15773-1.8386-0.35037zm-230.48 12.33c1.4268-4.5473 8.006-8.9989 13.3-8.9989 2.6838 0 5.231 0.5748 5.6602 1.2773 0.42926 0.70254 1.4255 1.2774 2.214 1.2774 0.78851 0-0.51788-1.4563-2.9031-3.2364-2.9725-2.2182-5.9296-3.2267-9.4006-3.2057-2.7852 0.016876-23.532-0.55167-46.105-1.2633-38.718-1.2207-77.723-0.65425-78.816 1.1448-0.52036 0.85684 7.838 1.0261 69.976 1.4174 21.183 0.1335 40.607 0.55016 43.163 0.92596l4.6474 0.6832-2.5588 2.7251c-2.7463 2.9246-4.8419 7.4765-4.8419 10.517 0 2.6887 4.6348 0.018005 5.6646-3.264zm218.54-1.296c0-3.5675-0.32752-4.4785-1.1049-3.0733-2.1205 3.8326-2.0127 8.1438 0.20361 8.1438 0.49573 0 0.90131-2.2817 0.90131-5.0705zm-171.17 2.4544c2.6366-0.90549 2.293-1.0519-2.084-0.888-2.8826 0.10794-6.1203-0.54198-7.195-1.444-1.3892-1.1662-2.6118-1.2669-4.2299-0.34795-1.894 1.0754-1.9581 1.3969-0.38184 1.9156 1.0418 0.34283 2.7466 0.91098 3.7884 1.2624 2.7463 0.92656 6.4919 0.74187 10.102-0.49805zm22.078-1.5714c3.132-0.15572 5.6964-0.78853 5.6987-1.4062 0.004272-1.0928-11.296-0.28409-20.2 1.4457l-4.4198 0.8585 4.4198 0.761c2.4309 0.41858 5.407 0.28026 6.6135-0.30745 1.2065-0.58757 4.7562-1.1958 7.8882-1.3515zm68.682-2.9563c0.43567-0.47824-0.77057-0.58325-2.6805-0.23337-1.91 0.34985-3.4727 0.1023-3.4727-0.55016 0-0.65233-1.2786-0.85709-2.8413-0.45473l-2.8413 0.7314 2.7676-1.4459c3.3855-1.7689 4.3339-3.9617 2.7455-6.3474-1.0081-1.5139-1.1414-1.4955-0.83887 0.11586 0.19794 1.0538-0.20074 1.916-0.88586 1.916-1.6035 0-0.82257-3.5234 1.0733-4.8424 0.79883-0.55576 3.5833-0.75415 6.1878-0.44093 2.6046 0.31319 4.7355 0.37798 4.7355 0.14371 0-1.8315-4.7106-4.4404-8.0174-4.4404-4.6431 0-10.114 3.3352-8.8544 5.3974 0.46735 0.76486 0.7774 3.3368 0.68896 5.7154-0.125 3.3642 0.46222 4.5742 2.6442 5.4477 2.9318 1.1738 8.2296 0.78032 9.5895-0.71223zm-130.55-1.7829c0.44238-0.72412-0.064453-0.93819-1.1883-0.50212-2.1877 0.84918-2.5879 1.7648-0.77148 1.7648 0.65356 0 1.5355-0.56816 1.9598-1.2626zm27.62-1.5719c-0.48444-0.79285 0.29279-0.92786 2.0652-0.35883 1.936 0.62158 2.5665 0.46153 1.9778-0.50185-1.2743-2.0855-4.7288-1.6732-8.1268 0.97012l-2.992 2.3275 3.9262-0.583c2.1747-0.32275 3.5797-1.1498 3.1496-1.8539zm9.0106 1.5572c-0.42926-0.70253-1.5657-1.2773-2.5256-1.2773-0.95984 0-2.0964 0.57478-2.5256 1.2773-0.44446 0.72732 0.64307 1.2773 2.5256 1.2773 1.8824 0 2.97-0.55002 2.5256-1.2773zm22.415-3.1614c1.2154-0.51914 2.2099-1.496 2.2099-2.1707s-0.99445-0.92174-2.2099-0.54887c-1.2154 0.37285-5.0512 1.2782-8.5239 2.0118-11.279 2.383-12.109 2.6524-11.455 3.7222 0.64471 1.0552 15.807-1.2325 19.979-3.0144zm74.189 3.9564c0-0.26517-0.99451-1.2711-2.2099-2.2354-2.0029-1.5887-2.0476-1.5436-0.47681 0.48233 1.6497 2.1278 2.6867 2.8044 2.6867 1.753zm-161.64-3.3497c1.54-1.0067 1.3768-1.2418-0.87262-1.2578-1.5217-0.010727-3.1179 0.55525-3.5472 1.2578-0.99365 1.6263 1.932 1.6263 4.4198 0zm72.367-1.2036c2.912-0.66193 6.8574-1.5351 8.7674-1.9403 5.5557-1.1787 4.082-2.8086-5.0512-5.5867-12.911-3.9273-25.095-5.3209-51.459-5.8857l-23.993-0.514 22.73 1.0343c19.957 0.90804 36.623 2.5757 45.776 4.581 4.902 1.0737 3.1231 2.7188-4.7731 4.4137-7.1147 1.5273-7.4254 1.74-4.7355 3.2426 3.6377 2.032 6.1191 2.1596 12.738 0.65503zm84.22-0.7124c0-1.0538-0.47357-1.916-1.0523-1.916-0.57886 0-1.0524 0.86221-1.0524 1.916s0.47351 1.916 1.0524 1.916c0.57874 0 1.0523-0.8622 1.0523-1.916zm71.221-0.4301c0.75903-1.2423-6.4256-1.0313-7.6678 0.2252-0.45862 0.46393 0.93207 0.84355 3.0904 0.84355 2.1584 0 4.2182-0.48093 4.5774-1.0688zm-400.28-2.9229c-0.8353-1.3671 1.0324-1.4778 2.6953-0.15967 0.66476 0.52689 0.59271 0.21587-0.16016-0.69118-1.017-1.2252-2.2364-1.3155-4.7445-0.35088-4.2097 1.6189-4.2827 2.3194-0.24176 2.3194 1.7237 0 2.8267-0.50288 2.4511-1.1177zm74.603 0.1597c0.43518-0.71223-0.50943-1.2686-2.1354-1.2578-2.3458 0.015717-2.5455 0.26158-1.0216 1.2578 2.3497 1.536 2.2185 1.536 3.157 0zm320.15-2.5068c3.2742 2.0945 4.2364 1.3127 1.4227-1.1557-1.4953-1.3118-2.7188-3.0362-2.7188-3.832 0-0.79578-0.5683-1.4468-1.2629-1.4468-0.69446 0-1.254 1.8681-1.2434 4.1514 0.011108 2.393 0.42639 3.5036 0.98041 2.6221 0.63385-1.0086 1.5947-1.1239 2.822-0.33888zm-330.55-2.2243c-1.5532-0.30324-4.3945-0.31102-6.314-0.017502-1.9195 0.29366-0.64877 0.54172 2.8239 0.55132 3.4727 0.009567 5.0432-0.2307 3.49-0.53381zm53.063-0.6095c-3.2065-0.7102-11.494-0.72871-20.836-0.046616l-15.512 1.1327 20.836 0.0466c15.649 0.035019 19.511-0.24704 15.512-1.1327zm63.729 0.5781c-2.6046-0.27551-6.8664-0.27551-9.471 0-2.6046 0.27565-0.47357 0.5011 4.7355 0.5011 5.209 0 7.34-0.22545 4.7355-0.5011zm-98.182-2.934c1.2861-0.86284-1.5518-1.0053-8.8396-0.44363-5.9036 0.45499-10.971 1.0357-11.26 1.2904-1.274 1.1215 18.401 0.29263 20.1-0.84674zm109.52 0.3777c-2.62-0.27654-6.5978-0.27182-8.8396 0.010345-2.2418 0.28215-0.098083 0.50838 4.7637 0.50275 4.8618-0.005737 6.6959-0.23654 4.0759-0.51309zm177.14 0.1898c0-0.80191-14.217-4.4626-14.849-3.8235-1.1024 1.115 7.5754 4.3724 11.376 4.2704 1.91-0.051346 3.4727-0.2524 3.4727-0.44693zm-267.08-1.8123c0.48782-0.79832-2.1164-1.2773-6.9454-1.2773s-7.4332 0.479-6.9454 1.2773c0.42923 0.70254 3.5547 1.2773 6.9454 1.2773s6.5161-0.5748 6.9454-1.2773zm29.176-2.2088c-0.41968-0.42445-0.71808 0.33008-0.66327 1.6765 0.060608 1.4881 0.3598 1.7907 0.76294 0.77177 0.36475-0.92212 0.31995-2.0238-0.09967-2.4483zm14.627 0.0589c-0.91162-0.36902-2.0007-0.32368-2.4204 0.10078-0.41962 0.42445 0.32623 0.72641 1.6574 0.67098 1.4711-0.06131 1.7703-0.36404 0.76294-0.77176zm-150.58-3.812c0.30591-0.2671-0.26236-1.2024-1.2628-2.0782-1.2367-1.0827-4.0427-1.3442-8.7644-0.81647-4.3893 0.49049-5.435 0.85274-2.8413 0.9843 2.6822 0.13605 4.1041 0.86093 4.1041 2.0923 0 1.4361 0.97568 1.6962 4.1041 1.0939 2.2573-0.43466 4.3544-1.0088 4.6603-1.2758zm112.21-0.6803c4.1724-4.2205-1.7496-9.1491-7.3501-6.1172-2.4336 1.3174-3.3522 5.0844-1.6578 6.7984 1.3952 1.4113 7.3873 0.95812 9.0079-0.68121zm-7.6872-0.5375c-2.3737-2.401-0.75281-4.4639 3.2042-4.078 4.9904 0.48677 5.6851 4.0458 0.89984 4.6103-1.7624 0.20795-3.6092-0.031555-4.1041-0.53229zm19.305 0.9442c-5.8998-1.0545-6.0515-4.5725-0.2049-4.7496 3.15-0.095413 4.5027 0.5499 5.3543 2.5547 1.0586 2.4921 1.1179 2.4558 0.8363-0.51092-0.25354-2.6713-1.0433-3.2561-4.831-3.5773-4.9454-0.41924-8.2706 2.1757-7.0182 5.4771 0.49326 1.3001 2.2953 1.8772 5.5082 1.7641l4.7751-0.1682-4.4198-0.7898zm21.996 0.3508c5.4054-2.098-1.1995-7.9569-7.2411-6.4231-3.1745 0.80588-5.2285 3.9444-3.9504 6.0363 0.8017 1.3121 8.1533 1.5662 11.192 0.38678zm-10.341-2.0187c0.64752-1.9649 9.654-2.3199 10.129-0.39929 0.17364 0.70254-2.1586 1.4571-5.1827 1.6766-4.1006 0.29773-5.358-0.026962-4.946-1.2774zm190.98-4.9758c1.5169-1.56-2.3725-5.0288-5.5647-4.9628-1.5737 0.03244-1.477 0.41667 0.48273 1.916 2.2695 1.7363 2.0196 1.8754-3.3694 1.8754-7.047 0-9.8581 0.95659-9.0524 3.0804 0.71893 1.8951 15.357 0.29863 17.504-1.909zm-33.25-4.7444c-1.6428-0.26148-3.5075 0.051224-4.1437 0.69488-0.70056 0.70851 0.47748 0.89604 2.9869 0.47516 3.5066-0.58797 3.6845-0.76794 1.1568-1.17zm14.984-1.5364c0-0.70254 1.2786-1.3347 2.8413-1.4047 2.704-0.12108 2.6888-0.17168-0.31567-1.0455-1.818-0.52869-4.8296-0.22534-7.1007 0.71542-2.1691 0.89836-4.3 1.273-4.7355 0.83256-0.43555-0.44055-0.79181-0.13028-0.79181 0.68926 0 0.88712 2.0446 1.4903 5.0512 1.4903 2.7781 0 5.0512-0.57478 5.0512-1.2773zm22.099-1.2773c-0.4292-0.70254-1.7413-1.237-2.9158-1.1876-1.7408 0.073181-1.6686 0.29263 0.3902 1.1876 3.3792 1.4688 3.423 1.4688 2.5256 0zm-295.49-1.2294c-5.0516-1.3641-11.997-1.5659-11.997-0.34871 0 0.53711 3.5516 1.0656 7.8925 1.1741 6.0093 0.15047 6.9885-0.046494 4.1041-0.82541zm263.66-0.3672c3.9977-1.878 4.1741-2.6005 1.2087-4.953-2.0029-1.5888-2.0476-1.5437-0.47681 0.48233 1.6067 2.0722 1.192 2.2429-5.6826 2.3391-7.3134 0.1023-7.3634 0.12796-3.6273 1.8584 4.7385 2.1947 4.5035 2.1872 8.5779 0.27321zm-307.86-0.6046c-2.0814-0.32112-4.0741-1.0583-4.4283-1.6379-0.35419-0.57967-1.9793-0.33107-3.6114 0.55232-2.6803 1.451-2.2519 1.6096 4.4283 1.638 4.0676 0.01738 5.6928-0.23119 3.6114-0.55244zm145.51 0.0387c-1.2286-0.32379-2.9335-0.3026-3.7884 0.047394-0.85498 0.34987 0.15027 0.61478 2.234 0.58887 2.0836-0.026077 2.7831-0.31233 1.5544-0.63626zm178.71-1.2381c-0.86816-0.35434-2.2888-0.35434-3.157 0-0.86816 0.35432-0.1579 0.64429 1.5785 0.64429s2.4467-0.28996 1.5785-0.64429zm-330.9-6.805c-0.64377-4.4367-2.7968-3.897-2.7968 0.70099 0 1.7391 0.74097 3.118 1.6755 3.118 1.1421 0 1.4991-1.2158 1.1214-3.819zm164.85 1.664c-1.2074-0.3197-3.4804-0.33121-5.0512-0.025787-1.5708 0.30554-0.58295 0.56714 2.1952 0.58133 2.7781 0.014175 4.0634-0.23581 2.856-0.55554zm4.7208-0.3997c-0.42926-0.70254-1.0311-1.2773-1.3373-1.2773-0.30627 0-0.55688 0.5748-0.55688 1.2773 0 0.70253 0.60181 1.2773 1.3373 1.2773 0.73554 0 0.98614-0.5748 0.55688-1.2773zm-158.57-15.967c0.002533-0.70253-0.82971-0.16158-1.8495 1.2021-1.0197 1.3638-1.8339 3.3756-1.8093 4.4707 0.048706 2.1678 3.6506-3.417 3.6587-5.6728zm78.826-12.355l0.7178-8.0821-1.7902 7.664c-0.98459 4.2152-1.7661 9.3884-1.7367 11.496l0.0534 3.832 1.0189-3.414c0.56042-1.8777 1.342-7.0509 1.7368-11.496zm35.969 2.9222c2.8911-6.2421 5.2566-11.703 5.2566-12.135 0-0.43214-1.8468-0.74917-4.1041-0.70458-3.7252 0.073441-3.8417 0.18764-1.2628 1.2362 3.4868 1.4176 3.6617 2.5148 0.40079 2.5148-1.3423 0-2.8012-1.1496-3.2421-2.5547-0.66934-2.1333-1.9106-2.5547-7.5249-2.5547h-6.7234l4.2829 12.441c2.3556 6.8426 4.2828 12.591 4.2828 12.773 0 0.18292 0.75998 0.33247 1.6888 0.33247 0.92886 0 4.0543-5.1072 6.9454-11.349zm-45.595 9.1866c-1.2286-0.32379-2.9334-0.3026-3.7884 0.047394-0.85495 0.34987 0.1503 0.61479 2.2339 0.58885 2.0836-0.026062 2.7831-0.31232 1.5544-0.63625zm-12.645-12.828c-0.29025-1.9417-0.53549-0.6563-0.54498 2.8564-0.00946 3.5127 0.22803 5.1013 0.52774 3.5303 0.29974-1.5711 0.30753-4.4451 0.017242-6.3867zm17.536 0.0089c-0.41962-0.42446-0.71808 0.33006-0.66324 1.6765 0.060577 1.4881 0.3598 1.7907 0.76294 0.77177 0.36478-0.92211 0.31992-2.0238-0.099701-2.4483zm-70.511-3.007c1.1936-1.5916 1.1714-2.0225-0.10446-2.0225-0.89169 0-1.7046 1.1188-1.8064 2.4862-0.10181 1.3674-0.05481 2.2775 0.10446 2.0224 0.1593-0.25496 0.9722-1.3738 1.8064-2.4861zm35.652 0.6697c0-1.0953-0.57754-1.6304-1.2834-1.1891-0.70584 0.44118-0.95645 1.3374-0.55685 1.9914 1.0825 1.7717 1.8403 1.4414 1.8403-0.80229zm227.3-0.5633c-0.74341-1.4051-1.6358-2.5547-1.983-2.5547-0.34729 0-0.023132 1.1496 0.72028 2.5547 0.74335 1.4051 1.6357 2.5547 1.983 2.5547 0.34729 0 0.023193-1.1496-0.72028-2.5547zm-3.7884-3.5879c0-1.2707-0.81995-3.4262-1.8221-4.79-1.7446-2.3739-1.8084-2.3414-1.4994 0.76793 0.526 5.2934 3.3215 8.6786 3.3215 4.0221zm-5.3453-10.356c-0.83423-1.1123-1.6472-2.2311-1.8065-2.4861-0.15924-0.25508-0.2063 0.65503-0.10443 2.0224 0.10181 1.3674 0.91473 2.4862 1.8064 2.4862 1.2759 0 1.2982-0.43098 0.10449-2.0225zm-44.851-17.558c-0.86816-0.35432-2.2888-0.35432-3.157 0-0.86816 0.35433-0.15784 0.6443 1.5786 0.6443 1.7363 0 2.4467-0.28997 1.5784-0.6443zm-9.4709-1.3118c-1.2154-0.32124-3.2044-0.32124-4.4198 0-1.2154 0.32125-0.22101 0.58414 2.2099 0.58414s3.4254-0.26289 2.2099-0.58414zm201.42 275.9c1.2154-0.32123 3.2044-0.32123 4.4198 0 1.2154 0.32126 0.22101 0.58417-2.2099 0.58417-2.4308 0-3.4253-0.26291-2.2099-0.58417zm19.889-0.6912c0-0.54068 13.07-0.98306 29.044-0.98306 17.378 0 29.044 0.48453 29.044 1.2061 0 0.72809-11.511 1.1178-29.044 0.983-15.974-0.12262-29.044-0.66534-29.044-1.206zm-122.83-0.5435c0.85498-0.35001 2.5598-0.37125 3.7884-0.047424 1.2287 0.32391 0.52911 0.6102-1.5544 0.63623-2.0837 0.02597-3.0889-0.23898-2.234-0.58881zm12.021-0.1011c3.299-0.26315 8.6975-0.26315 11.997 0 3.299 0.26312 0.59985 0.47836-5.9983 0.47836-6.5981 0-9.2974-0.21524-5.9983-0.47836zm21.494 0.1671c0.41962-0.42447 1.5088-0.46982 2.4204-0.1008 1.0073 0.40774 0.70813 0.71045-0.763 0.77179-1.3312 0.05542-2.077-0.24652-1.6574-0.67099zm-293.63-4.013c7.119-0.22763 18.768-0.22763 25.887 0 7.119 0.22772 1.2944 0.41397-12.944 0.41397s-20.063-0.18625-12.944-0.41397zm39.804 0.181c0.41962-0.42447 1.5088-0.46979 2.4204-0.10083 1.0074 0.40774 0.70816 0.71048-0.76294 0.77179-1.3312 0.05545-2.077-0.24652-1.6574-0.67096zm9.4673-0.1539c2.2697-0.28433 5.6793-0.27844 7.5768 0.013062 1.8975 0.29144 0.040497 0.52393-4.1267 0.51678-4.1672-0.007172-5.7198-0.24564-3.4501-0.52985zm19.508-0.0115c3.2758-0.26212 8.9584-0.26477 12.628-0.006012 3.6696 0.25879 0.98941 0.47339-5.956 0.47668-6.9454 0.003357-9.9478-0.20847-6.672-0.47067zm-177.37-1.2436c1.5708-0.30542 3.8438-0.29398 5.0512 0.025787 1.2073 0.3197-0.077881 0.56967-2.856 0.55551-2.7781-0.014191-3.766-0.27579-2.1952-0.5813zm19.559-0.0488c6.7718-0.22968 17.853-0.22968 24.624 0 6.7718 0.22964 1.2312 0.41754-12.312 0.41754-13.544 0-19.084-0.1879-12.312-0.41754zm50.538 0.1805c0.41962-0.42441 1.5088-0.46982 2.4204-0.1008 1.0074 0.40778 0.70816 0.71048-0.76294 0.77179-1.3312 0.055481-2.077-0.24652-1.6574-0.67099zm449.56-47.261c0.41962-0.4245 1.5088-0.46982 2.4204-0.1008 1.0074 0.40772 0.70819 0.71045-0.76288 0.77176-1.3312 0.05545-2.0771-0.24649-1.6575-0.67096zm-571.44-21.789c0.86816-0.35434 2.2888-0.35434 3.157 0 0.86816 0.35434 0.15784 0.64429-1.5785 0.64429s-2.4466-0.28995-1.5785-0.64429zm11.365-0.0555c1.5627-0.3045 4.1199-0.3045 5.6826 0 1.5627 0.30438 0.28412 0.55347-2.8413 0.55347s-4.404-0.24908-2.8413-0.55347zm567-0.047c5.0353-0.24246 13.275-0.24246 18.31 0 5.0355 0.24243 0.91559 0.4408-9.1552 0.4408s-14.191-0.19836-9.1553-0.4408zm-579.31-35.669c0-2.5759 0.42618-4.2524 0.94708-3.7255s0.94711 1.6286 0.94711 2.4482c0 0.81966 1.8468 1.6704 4.1041 1.8906 2.3053 0.22482 4.1041-0.19504 4.1041-0.95799 0-0.74712 0.56824-1.3583 1.2628-1.3583 0.69452 0 1.2628 0.86221 1.2628 1.916 0 3.3976 4.7545 2.155 6.1091-1.5967l1.2683-3.5127 0.0997 4.1513c0.05481 2.2832 0.52924 4.1514 1.0542 4.1514 0.52499 0 1.8036-1.8681 2.8413-4.1514l1.8867-4.1513 0.3996 3.5127c0.45685 4.0163 2.044 4.5337 3.9191 1.2773 1.2259-2.1289 1.289-2.1289 1.3255 0 0.029144 1.6957 1.1054 2.2353 4.4582 2.2353 2.4309 0 4.4198 0.5748 4.4198 1.2773 0 0.79832-7.5768 1.2773-20.205 1.2773h-20.205v-4.6836zm43.37 0.2449c1.1547-2.5009 2.2915-3.1014 5.4407-2.874 2.1896 0.15802 3.7585 0.65338 3.4866 1.1007-0.67236 1.1059 2.0792 3.2443 5.1603 4.0104 1.3891 0.3454-1.5408 0.6946-6.5109 0.77611l-9.0365 0.1482 1.4597-3.1614zm19.139 1.8841c2.1597-0.93872 2.2054-1.1108 0.3157-1.1875-2.7118-0.11023-2.9763-2.6445-0.27606-2.6445 1.0636 0 2.2609-0.8622 2.6607-1.916 1.4404-3.7969 6.2191-2.0509 5.7069 2.0851-0.055023 0.44426 0.85034 0.73167 2.012 0.63869 1.1616-0.093002 2.3175 0.83679 2.5687 2.0662 0.39816 1.9491-0.56613 2.2238-7.5284 2.1455-5.6308-0.063217-7.2404-0.41347-5.4595-1.1875zm-28.413-1.8407c0-1.3482 2.4235-1.9146 3.1443-0.73485 0.43625 0.71405-0.092712 1.2982-1.1755 1.2982s-1.9688-0.2534-1.9688-0.56331zm561.31-4.546c-0.42926-0.70254 0.10547-1.2773 1.1882-1.2773 1.0828 0 1.9688 0.57478 1.9688 1.2773 0 0.70254-0.53473 1.2773-1.1882 1.2773-0.65356 0-1.5395-0.57478-1.9688-1.2773zm6.6296 0.4314c0.86822-0.35434 2.2889-0.35434 3.157 0 0.86816 0.35432 0.15784 0.64429-1.5785 0.64429-1.7364 0-2.4467-0.28996-1.5786-0.64429zm-552.79-1.6686c0-0.68044 0.85239-0.9064 1.8942-0.502s1.8942 0.96108 1.8942 1.2372c0 0.27603-0.85239 0.502-1.8942 0.502s-1.8942-0.55679-1.8942-1.2372zm207.87-97.126c0.76923-0.7789 4.747-1.6698 8.8395-1.9798 8.1769-0.61938 5.407 0.89258-4.5556 2.4868-4.1596 0.66565-5.3077 0.52972-4.2839-0.50697zm-53.164-2.7497c0.41589-1.0963 2.5733-1.7708 5.6635-1.7708 5.9311 0 5.0856 1.4185-1.5844 2.6584-3.77 0.70074-4.6122 0.51758-4.0791-0.88762zm222.87 0.2032c0-0.70253 0.25061-1.2773 0.55688-1.2773 0.30621 0 0.90802 0.5748 1.3373 1.2773 0.42926 0.70254 0.17871 1.2773-0.55688 1.2773-0.73547 0-1.3373-0.5748-1.3373-1.2773zm-152.31-3.2833c0.42462-1.1193 0.77203-2.2754 0.77203-2.5692 0-0.29379 0.83453-0.53418 1.8546-0.53418 2.3207 0 1.204 3.3519-1.4614 4.3864-1.3887 0.53903-1.7186 0.17577-1.1652-1.283zm79.408 1.2342c0.41962-0.42444 1.5088-0.4698 2.4204-0.10078 1.0074 0.40773 0.70819 0.71046-0.76294 0.77177-1.3312 0.05545-2.077-0.24654-1.6574-0.67099zm-22.757-2.6634c1.2154-0.32124 3.2044-0.32124 4.4198 0 1.2154 0.32126 0.22101 0.58414-2.2099 0.58414s-3.4254-0.26288-2.2099-0.58414zm102.61-1.6595c-0.44244-0.72412 0.064453-0.9382 1.1882-0.50211 2.1877 0.84917 2.588 1.7648 0.77148 1.7648-0.6535 0-1.5354-0.56816-1.9597-1.2626zm-132.6-1.3966c4.7749-1.4742 28.425-2.6151 25.878-1.2485-1.0365 0.55614-8.1354 1.3277-15.775 1.7146-9.321 0.47211-12.644 0.31871-10.102-0.4661zm46.408-2.3337c3.9936-0.43201 10.529-0.43201 14.522 0 5.3243 0.57582 3.3875 0.78543-7.261 0.78543-10.649 0-12.585-0.20961-7.2611-0.78543zm-76.634-3.574c-0.6853-1.8205-0.54028-1.9671 0.70691-0.71505 0.86298 0.86655 1.251 1.8972 0.86218 2.2905-0.38879 0.3933-1.0949-0.31563-1.5691-1.5755zm-8.9727-14.51c-0.45782-0.74928-0.56152-1.6363-0.23053-1.9712 0.33099-0.33479 0.93835 0.27833 1.3496 1.3624 0.85388 2.2508 0.1261 2.6466-1.1191 0.60878zm43.934-3.3502c1.2154-0.32124 3.2044-0.32124 4.4198 0 1.2154 0.32126 0.22101 0.58413-2.2099 0.58413-2.4308 0-3.4254-0.26287-2.2099-0.58413zm-100.55-2.3623c-1.2186-3.212-0.8591-4.0409 0.62955-1.4514 0.73706 1.2822 1.0741 2.6003 0.74899 2.9291-0.32513 0.32891-0.9455-0.33608-1.3785-1.4776zm-32.673-10.455c2.2573-0.28331 5.951-0.28331 8.2082 0 2.2573 0.28332 0.4104 0.51516-4.1041 0.51516s-6.3614-0.23184-4.1041-0.51516zm169.24-0.0017c2.2696-0.28433 5.6793-0.27846 7.5767 0.013031 1.8976 0.29148 0.040588 0.52396-4.1266 0.51681-4.1672-0.007156-5.7198-0.24564-3.4501-0.52984zm-80.421-13.597c0.28943-0.2598 4.7882-0.81979 9.9971-1.2444 6.0546-0.49356 8.56-0.35561 6.9454 0.38255-2.3713 1.0841-18.08 1.8832-16.943 0.86182z" fill="#7f7f7f"/>
</svg>
